<mxfile host="app.diagrams.net" modified="2021-05-19T12:55:19.216Z" agent="5.0 (Windows NT 10.0; Win64; x64) AppleWebKit/537.36 (KHTML, like Gecko) Chrome/90.0.4430.212 Safari/537.36" etag="DJQMdCq6LdK_ScjGe74L" version="14.6.13" type="github">
  <diagram id="nOcCNTiSsERLsSgNmTfC" name="Page-1">
    <mxGraphModel dx="496" dy="1375" grid="1" gridSize="10" guides="1" tooltips="1" connect="1" arrows="1" fold="1" page="1" pageScale="1" pageWidth="850" pageHeight="1100" math="0" shadow="0">
      <root>
        <mxCell id="0" />
        <mxCell id="1" parent="0" />
        <mxCell id="cbZRUDcGyEX3tI65VYmC-2" value="Proizvodjac" style="swimlane;childLayout=stackLayout;horizontal=1;startSize=30;horizontalStack=0;rounded=1;fontSize=14;fontStyle=0;strokeWidth=2;resizeParent=0;resizeLast=1;shadow=0;dashed=0;align=center;" vertex="1" parent="1">
          <mxGeometry x="30" width="160" height="120" as="geometry" />
        </mxCell>
        <mxCell id="cbZRUDcGyEX3tI65VYmC-3" value="Proizvodjac_ID&#xa;&#xa;" style="align=left;strokeColor=none;fillColor=none;spacingLeft=4;fontSize=12;verticalAlign=top;resizable=0;rotatable=0;part=1;" vertex="1" parent="cbZRUDcGyEX3tI65VYmC-2">
          <mxGeometry y="30" width="160" height="90" as="geometry" />
        </mxCell>
        <mxCell id="cbZRUDcGyEX3tI65VYmC-5" value="" style="edgeStyle=entityRelationEdgeStyle;fontSize=12;html=1;endArrow=ERoneToMany;exitX=0.994;exitY=0.367;exitDx=0;exitDy=0;exitPerimeter=0;" edge="1" parent="1" source="cbZRUDcGyEX3tI65VYmC-3">
          <mxGeometry width="100" height="100" relative="1" as="geometry">
            <mxPoint x="220" y="55" as="sourcePoint" />
            <mxPoint x="310" y="65" as="targetPoint" />
          </mxGeometry>
        </mxCell>
        <mxCell id="cbZRUDcGyEX3tI65VYmC-6" value="Proizvod" style="swimlane;childLayout=stackLayout;horizontal=1;startSize=30;horizontalStack=0;rounded=1;fontSize=14;fontStyle=0;strokeWidth=2;resizeParent=0;resizeLast=1;shadow=0;dashed=0;align=center;" vertex="1" parent="1">
          <mxGeometry x="310" y="10" width="160" height="120" as="geometry" />
        </mxCell>
        <mxCell id="cbZRUDcGyEX3tI65VYmC-7" value="Naziv&#xa;Proizvodjac_ID" style="align=left;strokeColor=none;fillColor=none;spacingLeft=4;fontSize=12;verticalAlign=top;resizable=0;rotatable=0;part=1;" vertex="1" parent="cbZRUDcGyEX3tI65VYmC-6">
          <mxGeometry y="30" width="160" height="90" as="geometry" />
        </mxCell>
        <mxCell id="cbZRUDcGyEX3tI65VYmC-9" value="Cena" style="swimlane;childLayout=stackLayout;horizontal=1;startSize=30;horizontalStack=0;rounded=1;fontSize=14;fontStyle=0;strokeWidth=2;resizeParent=0;resizeLast=1;shadow=0;dashed=0;align=center;" vertex="1" parent="1">
          <mxGeometry x="300" y="310" width="160" height="110" as="geometry" />
        </mxCell>
        <mxCell id="cbZRUDcGyEX3tI65VYmC-10" value="datum_pre&#xa;datum_posle" style="align=left;strokeColor=none;fillColor=none;spacingLeft=4;fontSize=12;verticalAlign=top;resizable=0;rotatable=0;part=1;" vertex="1" parent="cbZRUDcGyEX3tI65VYmC-9">
          <mxGeometry y="30" width="160" height="80" as="geometry" />
        </mxCell>
        <mxCell id="cbZRUDcGyEX3tI65VYmC-13" value="" style="edgeStyle=entityRelationEdgeStyle;fontSize=12;html=1;endArrow=ERmany;startArrow=ERmany;entryX=0.5;entryY=1;entryDx=0;entryDy=0;exitX=1;exitY=0.25;exitDx=0;exitDy=0;" edge="1" parent="1" source="cbZRUDcGyEX3tI65VYmC-10" target="cbZRUDcGyEX3tI65VYmC-7">
          <mxGeometry width="100" height="100" relative="1" as="geometry">
            <mxPoint x="369" y="270" as="sourcePoint" />
            <mxPoint x="420" y="150" as="targetPoint" />
          </mxGeometry>
        </mxCell>
        <mxCell id="cbZRUDcGyEX3tI65VYmC-14" value="Text" style="edgeLabel;html=1;align=center;verticalAlign=middle;resizable=0;points=[];" vertex="1" connectable="0" parent="cbZRUDcGyEX3tI65VYmC-13">
          <mxGeometry x="0.6696" y="2" relative="1" as="geometry">
            <mxPoint as="offset" />
          </mxGeometry>
        </mxCell>
      </root>
    </mxGraphModel>
  </diagram>
</mxfile>
